<svg id="Layer_1" data-name="Layer 1" xmlns="http://www.w3.org/2000/svg" width="274.79" height="70.57" viewBox="0 0 274.79 70.57"><defs><style>.cls-1{fill:#010101;stroke:#b6b8ba;stroke-miterlimit:10;stroke-width:0.68px;}.cls-2{fill:#fff;}.cls-3{fill:#0dbfe9;}</style></defs><title>JustAsk-Badge-Dark</title><path class="cls-1" d="M267.7,8.77H25.93A16.16,16.16,0,0,0,9.77,24.93v38A15.76,15.76,0,0,0,25.52,78.65H267.7a16.17,16.17,0,0,0,16.17-16.17V24.93A16.16,16.16,0,0,0,267.7,8.77Z" transform="translate(-9.43 -8.42)"/><path class="cls-2" d="M94.53,60.78l-.13-1.5a9.31,9.31,0,0,1-5.92,2.27,4.93,4.93,0,0,1-3.61-1.3,4.6,4.6,0,0,1-1.33-3.47A4.72,4.72,0,0,1,85.18,53a6.76,6.76,0,0,1,4.48-1.38,16.15,16.15,0,0,1,4.71.76V49.6a3.76,3.76,0,0,0-1-2.88,4.63,4.63,0,0,0-3.16-.87,16.5,16.5,0,0,0-5,.86.45.45,0,0,1-.59-.43v-.62a.45.45,0,0,1,.27-.42,14.29,14.29,0,0,1,2.56-.77,15,15,0,0,1,3.09-.33,6.45,6.45,0,0,1,4.3,1.22A4.62,4.62,0,0,1,96.24,49v11.7a.45.45,0,0,1-.45.45H95A.46.46,0,0,1,94.53,60.78Zm-5.79-.94a8.2,8.2,0,0,0,2.7-.51,15.47,15.47,0,0,0,2.93-1.43V53.78a16.69,16.69,0,0,0-4.28-.59q-4.61,0-4.61,3.56a3.07,3.07,0,0,0,.82,2.3A3.38,3.38,0,0,0,88.74,59.84Z" transform="translate(-9.43 -8.42)"/><path class="cls-2" d="M122.9,61.19a.46.46,0,0,1-.46-.45V49.93a5.14,5.14,0,0,0-.75-3.11,2.9,2.9,0,0,0-2.41-1,9.86,9.86,0,0,0-6,2.08,13.56,13.56,0,0,1,.1,1.54V60.74a.46.46,0,0,1-.46.45h-1a.45.45,0,0,1-.45-.45V49.93a5.06,5.06,0,0,0-.76-3.11,2.86,2.86,0,0,0-2.4-1,9.91,9.91,0,0,0-5.86,2V60.74a.45.45,0,0,1-.45.45h-1a.46.46,0,0,1-.46-.45V45.09a.47.47,0,0,1,.46-.46h.79a.45.45,0,0,1,.44.41l.16,1.4a12.19,12.19,0,0,1,3.11-1.71,9.32,9.32,0,0,1,3.17-.59,4.06,4.06,0,0,1,4.15,2.54,12.21,12.21,0,0,1,3.29-1.88,9.77,9.77,0,0,1,3.46-.66,4.51,4.51,0,0,1,3.46,1.28,5.31,5.31,0,0,1,1.18,3.72v11.6a.45.45,0,0,1-.45.45Z" transform="translate(-9.43 -8.42)"/><path class="cls-2" d="M138.67,60.78l-.13-1.5a9.32,9.32,0,0,1-5.93,2.27,4.93,4.93,0,0,1-3.6-1.3,4.6,4.6,0,0,1-1.33-3.47A4.72,4.72,0,0,1,129.32,53a6.76,6.76,0,0,1,4.48-1.38,16.15,16.15,0,0,1,4.71.76V49.6a3.76,3.76,0,0,0-1-2.88,4.63,4.63,0,0,0-3.16-.87,16.45,16.45,0,0,0-5,.86.46.46,0,0,1-.6-.43v-.62a.46.46,0,0,1,.28-.42,14.18,14.18,0,0,1,2.55-.77,15.21,15.21,0,0,1,3.1-.33A6.4,6.4,0,0,1,139,45.36a4.59,4.59,0,0,1,1.4,3.68v11.7a.45.45,0,0,1-.45.45h-.81A.45.45,0,0,1,138.67,60.78Zm-5.79-.94a8.2,8.2,0,0,0,2.7-.51,15.47,15.47,0,0,0,2.93-1.43V53.78a16.69,16.69,0,0,0-4.28-.59q-4.6,0-4.61,3.56a3,3,0,0,0,.82,2.3A3.38,3.38,0,0,0,132.88,59.84Z" transform="translate(-9.43 -8.42)"/><path class="cls-2" d="M143.54,60.74V59.67a.48.48,0,0,1,.1-.28l10.3-13.11h-9.62a.45.45,0,0,1-.45-.45v-.74a.46.46,0,0,1,.45-.46H155.6a.46.46,0,0,1,.45.46v1.07a.42.42,0,0,1-.1.28l-10.37,13.1h10.08a.47.47,0,0,1,.46.46v.74a.46.46,0,0,1-.46.45H144A.45.45,0,0,1,143.54,60.74Z" transform="translate(-9.43 -8.42)"/><path class="cls-2" d="M165.79,61.68a7,7,0,0,1-5.63-2.32,9.59,9.59,0,0,1-2-6.46,9.57,9.57,0,0,1,2-6.46,8,8,0,0,1,11.26,0,9.52,9.52,0,0,1,2,6.46,9.54,9.54,0,0,1-2,6.46A7,7,0,0,1,165.79,61.68Zm0-1.71q5.7,0,5.7-7.07t-5.7-7q-5.68,0-5.69,7T165.79,60Z" transform="translate(-9.43 -8.42)"/><path class="cls-2" d="M189.25,61.19a.45.45,0,0,1-.45-.45V49.93a4.78,4.78,0,0,0-.82-3.11,3.31,3.31,0,0,0-2.64-1A11.29,11.29,0,0,0,178.93,48V60.74a.46.46,0,0,1-.46.45h-1a.45.45,0,0,1-.45-.45V45.09a.46.46,0,0,1,.45-.46h.79a.46.46,0,0,1,.45.41l.15,1.5a13.74,13.74,0,0,1,3.39-1.77,10.36,10.36,0,0,1,3.46-.63,5,5,0,0,1,3.67,1.27,5.07,5.07,0,0,1,1.27,3.73v11.6a.45.45,0,0,1-.45.45Z" transform="translate(-9.43 -8.42)"/><path class="cls-2" d="M213,60.8l-.13-1.52a9.31,9.31,0,0,1-5.92,2.27,4.93,4.93,0,0,1-3.61-1.3A4.6,4.6,0,0,1,202,56.78,4.7,4.7,0,0,1,203.65,53a6.71,6.71,0,0,1,4.47-1.38,16.15,16.15,0,0,1,4.71.76V49.6a3.76,3.76,0,0,0-1-2.88,4.63,4.63,0,0,0-3.16-.87,16.74,16.74,0,0,0-5.06.86.42.42,0,0,1-.56-.4v-.67a.41.41,0,0,1,.26-.39,14.4,14.4,0,0,1,2.57-.78,15,15,0,0,1,3.09-.33,6.45,6.45,0,0,1,4.3,1.22A4.62,4.62,0,0,1,214.7,49V60.76a.43.43,0,0,1-.43.43h-.85A.43.43,0,0,1,213,60.8Zm-5.79-1a8.2,8.2,0,0,0,2.7-.51,15.18,15.18,0,0,0,2.93-1.43V53.78a16.69,16.69,0,0,0-4.28-.59q-4.61,0-4.61,3.56a3.07,3.07,0,0,0,.82,2.3A3.4,3.4,0,0,0,207.2,59.84Z" transform="translate(-9.43 -8.42)"/><path class="cls-2" d="M223.59,60.72a.42.42,0,0,1-.33.42,6.21,6.21,0,0,1-1.35.15,2.72,2.72,0,0,1-2-.77,3,3,0,0,1-.74-2.16V37.26a.43.43,0,0,1,.43-.43h1a.43.43,0,0,1,.43.43V58.33a1.46,1.46,0,0,0,.28,1,1.4,1.4,0,0,0,1,.29c.23,0,.52,0,.84,0a.43.43,0,0,1,.47.43Z" transform="translate(-9.43 -8.42)"/><path class="cls-2" d="M252.92,61l-5-7.13L243.07,61a.42.42,0,0,1-.35.19h-1a.43.43,0,0,1-.36-.68L247,52.57l-5.14-7.26a.43.43,0,0,1,.35-.68h1.15a.42.42,0,0,1,.35.19l4.41,6.3,4.42-6.3a.42.42,0,0,1,.35-.19h1a.44.44,0,0,1,.35.69l-5.11,7.12,5.68,8.07a.43.43,0,0,1-.35.68h-1.19A.44.44,0,0,1,252.92,61Z" transform="translate(-9.43 -8.42)"/><path class="cls-2" d="M267.46,60.8l-.13-1.52a9.29,9.29,0,0,1-5.92,2.27,4.91,4.91,0,0,1-3.6-1.3,4.61,4.61,0,0,1-1.34-3.47A4.7,4.7,0,0,1,258.12,53a6.75,6.75,0,0,1,4.47-1.38,16.15,16.15,0,0,1,4.71.76V49.6a3.8,3.8,0,0,0-.95-2.88,4.65,4.65,0,0,0-3.16-.87,16.64,16.64,0,0,0-5.06.86.43.43,0,0,1-.57-.4v-.67a.41.41,0,0,1,.26-.39,14.4,14.4,0,0,1,2.57-.78,15,15,0,0,1,3.09-.33,6.43,6.43,0,0,1,4.3,1.22,4.63,4.63,0,0,1,1.4,3.68V60.76a.43.43,0,0,1-.43.43h-.86A.43.43,0,0,1,267.46,60.8Zm-5.79-1a8.11,8.11,0,0,0,2.7-.51,15.18,15.18,0,0,0,2.93-1.43V53.78a16.69,16.69,0,0,0-4.28-.59q-4.61,0-4.61,3.56a3,3,0,0,0,.83,2.3A3.37,3.37,0,0,0,261.67,59.84Z" transform="translate(-9.43 -8.42)"/><path class="cls-2" d="M237.78,48.55" transform="translate(-9.43 -8.42)"/><path class="cls-2" d="M228.36,58.33a6.23,6.23,0,0,1-1.44-4,24.71,24.71,0,0,0,5,.75c3.25,0,6.79-1,6.79-5.44,0-3.75-2.54-5.45-6.19-5.45a7,7,0,0,0-5.58,2.29,9.52,9.52,0,0,0-2,6.43q0,4.38,2,6.6c1.31,1.48,3.28,2.22,5.89,2.22A11.34,11.34,0,0,0,238,60.55a.64.64,0,0,0,.34-.57v-.52a.43.43,0,0,0-.58-.4,13.17,13.17,0,0,1-4.85.91A5.86,5.86,0,0,1,228.36,58.33Zm4-12.51c2.46,0,4.54.93,4.54,3.77,0,3-2.6,3.76-5.14,3.76a35.42,35.42,0,0,1-4.89-.49c0-.13,0-.26,0-.39C227.06,48.14,228.91,45.82,232.34,45.82Z" transform="translate(-9.43 -8.42)"/><path class="cls-2" d="M84.07,32.63a5,5,0,0,0,1.37.21,1.31,1.31,0,0,0,1-.36,1.81,1.81,0,0,0,.31-1.18V25.38h1.5v5.9a3,3,0,0,1-.67,2.12,2.59,2.59,0,0,1-2,.72,4.29,4.29,0,0,1-1.56-.31Z" transform="translate(-9.43 -8.42)"/><path class="cls-2" d="M96.56,25.38h1.5v5.41a3.28,3.28,0,0,1-.89,2.46,4.16,4.16,0,0,1-5.09,0,3.28,3.28,0,0,1-.89-2.46V25.38h1.5v5.5a2.07,2.07,0,0,0,.49,1.47,1.88,1.88,0,0,0,1.44.52,1.85,1.85,0,0,0,1.44-.52,2,2,0,0,0,.5-1.47Z" transform="translate(-9.43 -8.42)"/><path class="cls-2" d="M102.62,30a3.64,3.64,0,0,1-1.48-.95,2,2,0,0,1-.46-1.37,2.22,2.22,0,0,1,.81-1.81,3.26,3.26,0,0,1,2.17-.67,6.37,6.37,0,0,1,2.3.44v1.19a7.41,7.41,0,0,0-2.14-.37c-1.08,0-1.61.37-1.61,1.1a.88.88,0,0,0,.29.69,3.06,3.06,0,0,0,1,.54l1,.38a3.51,3.51,0,0,1,1.47.92,2.05,2.05,0,0,1,.46,1.38,2.35,2.35,0,0,1-.88,1.95,3.65,3.65,0,0,1-2.4.71,6.37,6.37,0,0,1-1.3-.13,4.36,4.36,0,0,1-1.14-.36V32.44a8,8,0,0,0,1.24.3,6.37,6.37,0,0,0,1.17.11,2.34,2.34,0,0,0,1.32-.31,1,1,0,0,0,.46-.9.9.9,0,0,0-.28-.69,3.09,3.09,0,0,0-1-.55Z" transform="translate(-9.43 -8.42)"/><path class="cls-2" d="M110.93,33.91v-7.3h-2.67V25.38h6.84v1.23h-2.67v7.3Z" transform="translate(-9.43 -8.42)"/><path class="cls-2" d="M126.88,33.91l-.71-2.14h-3.41l-.69,2.14h-1.5l3.12-8.53h1.62l3.07,8.53Zm-3.77-3.23h2.71l-1.36-3.94Z" transform="translate(-9.43 -8.42)"/><path class="cls-2" d="M132.08,30A3.64,3.64,0,0,1,130.6,29a2,2,0,0,1-.46-1.37,2.22,2.22,0,0,1,.81-1.81,3.26,3.26,0,0,1,2.17-.67,6.37,6.37,0,0,1,2.3.44v1.19a7.41,7.41,0,0,0-2.14-.37c-1.08,0-1.61.37-1.61,1.1a.88.88,0,0,0,.29.69,3.17,3.17,0,0,0,1,.54l1,.38a3.51,3.51,0,0,1,1.47.92,2.05,2.05,0,0,1,.46,1.38,2.35,2.35,0,0,1-.88,1.95,3.64,3.64,0,0,1-2.39.71,6.47,6.47,0,0,1-1.31-.13,4.36,4.36,0,0,1-1.14-.36V32.44a8,8,0,0,0,1.24.3,6.37,6.37,0,0,0,1.17.11,2.32,2.32,0,0,0,1.32-.31,1,1,0,0,0,.46-.9.9.9,0,0,0-.28-.69,3.09,3.09,0,0,0-1-.55Z" transform="translate(-9.43 -8.42)"/><path class="cls-2" d="M138.56,33.91V25.38h1.5v3.76l3.34-3.76h1.72l-3.63,4,4,4.51h-1.87l-3.57-4.06v4.06Z" transform="translate(-9.43 -8.42)"/><path class="cls-3" d="M45.35,15.92A27.34,27.34,0,1,0,72.41,43.26,27.24,27.24,0,0,0,45.35,15.92ZM41.11,70.25V64.83a4.81,4.81,0,0,0-2.94-4.4A18.6,18.6,0,1,1,63.8,43.26C63.8,55.33,54.56,66.75,41.11,70.25Z" transform="translate(-9.43 -8.42)"/></svg>